<svg xmlns="http://www.w3.org/2000/svg" viewBox="0 0 340 900">
<defs>
  <linearGradient id="p" x1="0" y1="0" x2="1" y2="1"><stop stop-color="#fff"/><stop offset=".5" stop-color="#f8f2fb"/><stop offset="1" stop-color="#eee7f2"/></linearGradient>
  <linearGradient id="g1"><stop stop-color="#ff8ed2"/><stop offset="1" stop-color="#c92b91"/></linearGradient>
  <linearGradient id="g2"><stop stop-color="#84ecff"/><stop offset="1" stop-color="#309bd1"/></linearGradient>
  <linearGradient id="g3"><stop stop-color="#e1bdff"/><stop offset="1" stop-color="#8951bd"/></linearGradient>
  <filter id="s"><feDropShadow dx="0" dy="2" stdDeviation="2" flood-opacity=".2"/></filter>
</defs>
<rect width="340" height="900" fill="url(#p)" opacity=".96"/>
<g filter="url(#s)">
 <path d="M302 45 315 70 340 82 315 94 302 120 289 94 264 82 289 70Z" fill="url(#g1)"/>
 <circle cx="320" cy="170" r="16" fill="url(#g2)"/><path d="M320 154 331 170 320 186 309 170Z" fill="#fff" opacity=".3"/>
 <path d="M310 235c-22-18-42 8-18 28l18 15 18-15c24-20 4-46-18-28Z" fill="url(#g3)"/>
 <rect x="290" y="330" width="38" height="38" rx="6" transform="rotate(13 309 349)" fill="url(#g1)"/>
 <path d="M300 430 309 447 327 456 309 465 300 482 291 465 273 456 291 447Z" fill="url(#g2)"/>
 <circle cx="318" cy="565" r="13" fill="url(#g3)"/>
 <path d="M302 650 315 675 340 687 315 699 302 724 289 699 264 687 289 675Z" fill="url(#g1)"/>
 <path d="M311 790c-18-16-36 6-16 24l16 14 16-14c20-18 2-40-16-24Z" fill="url(#g2)"/>
</g>
</svg>